<?xml version="1.0" encoding="utf-8"?>
<!-- Generator: Adobe Illustrator 24.3.0, SVG Export Plug-In . SVG Version: 6.00 Build 0)  -->
<svg version="1.1" id="Layer_1" xmlns="http://www.w3.org/2000/svg" xmlns:xlink="http://www.w3.org/1999/xlink" x="0px" y="0px"
	 viewBox="0 0 340.8 94.1" style="enable-background:new 0 0 340.8 94.1;" xml:space="preserve">
<style type="text/css">
	.st0{fill:#FFFFFF;}
	.st1{fill:#FFB400;}
</style>
<g>
	<path class="st0" d="M15.8,38.8c0,13.5,11.6,24,25,22.6c4.5-0.5,8.2-2.7,11.5-5.9c3.7-3.6,6.6-7.9,9.8-11.8c1.7-2,3.5-3.9,5.8-5.4
		c4.9-3.1,9.2-2,11.8,3.1c3,5.9,2.8,11.9,0.4,17.9c-3.3,8.1-9.3,13.6-16.8,17.7c-5.4,3-11.1,4.8-17.2,4.7
		c-12.3-0.2-22.3-5.2-29.6-15.3c-4.5-6.2-6.6-13.3-6.6-21c0-17.8,13.4-33,31-35.5c6.1-0.9,12.1-0.2,17.9,1.9
		c1.4,0.5,2.8,1.1,3.8,2.3c1.8,2.4,1.6,5.7-0.5,7.7s-5.4,2.2-7.7,0.2c-3-2.6-6.4-4.6-10.3-5.5C29.4,13.2,15.7,24,15.8,38.8z"/>
	<g>
		<path class="st0" d="M81.1,38.5C81,38.2,81,38,80.8,37.8c-3.5-4.9-9.3-4.9-13.7-2.4c-3.7,2.1-6.4,5.3-9,8.6
			c-2.2,2.9-4.5,5.9-7,8.6c-8.4,9.1-19.6,6.7-25.9,0.9c-6.2-5.7-8.2-12.8-5.6-20.8c2.5-7.9,8.3-12.5,16.6-13.6
			c5.8-0.7,11,0.9,15.5,4.8c3.7,3.3,8.3,3.5,11.8,0.5c2.1-1.8,3.1-4.2,3-7c0-0.4-0.2-0.9,0.3-1.1c0.4-0.2,0.7,0.2,0.9,0.4
			c7,5.3,11.7,12.1,13.8,20.7c0.1,0.2,0.1,0.5,0.1,0.7C81.4,38.2,81.3,38.3,81.1,38.5L81.1,38.5z"/>
		<path class="st0" d="M6.9,51.5c2.8,13.8,10.5,23.6,23,29.8c-0.3,0.6-0.8,0.5-1.2,0.5c-6.7,0-13.4,0-20.1,0c-1.2,0-1.7-0.4-1.7-1.7
			c0-9.3,0-18.6,0-27.9C6.8,52,6.8,51.8,6.9,51.5L6.9,51.5z"/>
		<path class="st0" d="M7.2,40.1c-0.6-0.7-0.4-1.2-0.4-1.7c0-8.9,0-17.8,0-26.7c0-2.1,0.1-2.2,2.2-2.2c6.4,0,12.8,0,19.2,0
			c0.5,0,1.1-0.2,1.6,0.4C17.4,16.2,9.7,26,7.2,40.1L7.2,40.1z"/>
	</g>
</g>
<g>
	<path class="st0" d="M96.1,12.6h21.4c5.1,0,9.7,1,13.6,2.9c3.9,2,7,4.7,9.2,8.3s3.3,7.7,3.3,12.4s-1.1,8.9-3.3,12.4
		c-2.2,3.5-5.2,6.3-9.2,8.3c-3.9,2-8.5,2.9-13.6,2.9H96.1V12.6z M117,50.9c4.7,0,8.5-1.3,11.3-4c2.8-2.6,4.2-6.2,4.2-10.7
		s-1.4-8.1-4.2-10.7c-2.8-2.6-6.6-4-11.3-4h-10v29.3C107,50.9,117,50.9,117,50.9z"/>
	<path class="st0" d="M186.4,44.7h-27.5c0.5,2.2,1.7,4,3.5,5.3c1.8,1.3,4.1,2,6.9,2c1.9,0,3.6-0.3,5-0.8c1.5-0.6,2.8-1.5,4.1-2.7
		l5.6,6.1c-3.4,3.9-8.4,5.9-15,5.9c-4.1,0-7.7-0.8-10.9-2.4c-3.1-1.6-5.6-3.8-7.3-6.6c-1.7-2.8-2.6-6-2.6-9.6s0.8-6.8,2.5-9.6
		c1.7-2.9,4-5.1,6.9-6.7s6.2-2.4,9.9-2.4s6.8,0.8,9.6,2.3c2.9,1.5,5.1,3.7,6.8,6.6s2.5,6.2,2.5,9.9C186.6,42,186.5,42.9,186.4,44.7
		L186.4,44.7z M161.8,33c-1.6,1.3-2.6,3.2-3,5.5h17.9c-0.4-2.3-1.4-4.1-3-5.5c-1.6-1.4-3.6-2.1-5.9-2.1S163.4,31.6,161.8,33
		L161.8,33z"/>
	<path class="st0" d="M197,59.3c-2.9-0.7-5.2-1.7-6.9-2.8l3.5-7.6c1.6,1,3.6,1.9,5.9,2.5c2.3,0.7,4.5,1,6.8,1c4.4,0,6.7-1.1,6.7-3.3
		c0-1-0.6-1.8-1.8-2.2s-3.1-0.8-5.6-1.2c-3-0.5-5.4-1-7.4-1.5c-1.9-0.6-3.6-1.6-5-3.1s-2.1-3.6-2.1-6.3c0-2.3,0.7-4.3,2-6.1
		c1.3-1.8,3.3-3.2,5.8-4.1c2.5-1,5.5-1.5,9-1.5c2.6,0,5.1,0.3,7.7,0.8c2.5,0.6,4.6,1.3,6.3,2.3l-3.5,7.5c-3.2-1.8-6.7-2.7-10.5-2.7
		c-2.2,0-3.9,0.3-5.1,0.9c-1.1,0.6-1.7,1.4-1.7,2.4c0,1.1,0.6,1.9,1.8,2.4s3.1,0.9,5.8,1.3c3,0.5,5.4,1,7.3,1.6
		c1.9,0.6,3.5,1.6,4.9,3.1s2.1,3.5,2.1,6.2c0,2.2-0.7,4.2-2,6s-3.3,3.1-5.9,4.1c-2.6,1-5.7,1.5-9.2,1.5
		C202.8,60.4,199.9,60,197,59.3L197,59.3z"/>
	<path class="st1" d="M230,16.8c-1.2-1.1-1.8-2.5-1.8-4.2s0.6-3.1,1.8-4.2c1.2-1.1,2.8-1.7,4.7-1.7s3.5,0.5,4.7,1.6
		c1.2,1.1,1.8,2.4,1.8,4.1c0,1.8-0.6,3.2-1.8,4.3s-2.8,1.7-4.7,1.7S231.2,17.9,230,16.8z"/>
	<rect x="229.4" y="23.6" class="st0" width="10.5" height="36.3"/>
	<path class="st0" d="M287.2,23.6v30.2c0,6.7-1.7,11.6-5.2,14.8s-8.5,4.9-15.2,4.9c-3.5,0-6.8-0.4-10-1.3c-3.1-0.9-5.8-2.1-7.8-3.7
		l4.2-7.6c1.5,1.3,3.5,2.3,5.8,3s4.7,1.1,7,1.1c3.6,0,6.3-0.8,8.1-2.5s2.6-4.1,2.6-7.5v-1.5c-2.7,3-6.6,4.5-11.5,4.5
		c-3.3,0-6.4-0.7-9.1-2.2c-2.8-1.5-5-3.5-6.6-6.2c-1.6-2.7-2.4-5.7-2.4-9.2s0.8-6.5,2.4-9.2s3.8-4.7,6.6-6.2
		c2.8-1.5,5.8-2.2,9.1-2.2c5.3,0,9.3,1.7,12,5.2v-4.6L287.2,23.6L287.2,23.6z M274.1,47c1.8-1.6,2.7-3.8,2.7-6.4s-0.9-4.8-2.7-6.4
		c-1.8-1.6-4.1-2.5-6.9-2.5s-5.1,0.8-6.9,2.5c-1.8,1.6-2.7,3.8-2.7,6.4s0.9,4.8,2.7,6.4c1.8,1.6,4.1,2.5,6.9,2.5
		S272.3,48.6,274.1,47z"/>
	<path class="st0" d="M329.9,27.1c2.8,2.7,4.1,6.7,4.1,12v20.8h-10.5V40.7c0-2.9-0.6-5-1.9-6.4c-1.3-1.4-3.1-2.1-5.5-2.1
		c-2.6,0-4.8,0.8-6.3,2.5s-2.4,4.1-2.4,7.3v17.9H297V23.6h10v4.2c1.4-1.5,3.1-2.7,5.2-3.5c2.1-0.8,4.3-1.2,6.8-1.2
		C323.5,23,327.1,24.4,329.9,27.1L329.9,27.1z"/>
</g>
<g>
	<path class="st0" d="M101,86.1c-1.6-0.9-2.8-2-3.7-3.5c-0.9-1.5-1.3-3.2-1.3-5.1s0.4-3.6,1.3-5.1c0.9-1.5,2.1-2.7,3.7-3.5
		c1.6-0.9,3.3-1.3,5.2-1.3c1.5,0,2.9,0.2,4.1,0.8s2.3,1.3,3.2,2.2l-1.8,1.7c-1.4-1.5-3.3-2.3-5.4-2.3c-1.4,0-2.7,0.3-3.9,1
		s-2.1,1.5-2.7,2.7c-0.7,1.1-1,2.4-1,3.8s0.3,2.7,1,3.8c0.7,1.1,1.6,2,2.7,2.7c1.2,0.7,2.5,1,3.9,1c2.2,0,4-0.8,5.4-2.3l1.8,1.7
		c-0.9,1-2,1.8-3.2,2.3c-1.3,0.5-2.7,0.8-4.2,0.8C104.3,87.4,102.6,87,101,86.1L101,86.1z"/>
	<path class="st0" d="M133.8,84.8v2.4h-14V67.8h13.6v2.4h-10.9v5.9h9.7v2.3h-9.7v6.2H133.8z"/>
	<path class="st0" d="M157.1,67.8v19.3h-2.3l-11.6-14.4v14.4h-2.8V67.8h2.3l11.6,14.4V67.8H157.1z"/>
	<path class="st0" d="M169,70.2h-6.6v-2.4h16v2.4h-6.6v16.9H169V70.2z"/>
	<path class="st0" d="M185.2,85.2c-1.4-1.5-2.1-3.6-2.1-6.3v-11h2.8v10.9c0,4.1,1.8,6.2,5.4,6.2c1.8,0,3.1-0.5,4.1-1.5
		s1.4-2.6,1.4-4.7V67.8h2.7v11c0,2.8-0.7,4.9-2.1,6.4c-1.4,1.5-3.4,2.2-6,2.2S186.6,86.7,185.2,85.2L185.2,85.2z"/>
	<path class="st0" d="M220.2,87.2l-4.2-5.9c-0.5,0-0.9,0.1-1.2,0.1H210v5.9h-2.8V67.8h7.5c2.5,0,4.5,0.6,5.9,1.8
		c1.4,1.2,2.1,2.8,2.1,4.9c0,1.5-0.4,2.8-1.1,3.8c-0.7,1.1-1.8,1.8-3.1,2.3l4.6,6.5C223.2,87.2,220.2,87.2,220.2,87.2z M218.7,77.8
		c0.9-0.8,1.4-1.8,1.4-3.2s-0.5-2.5-1.4-3.2s-2.2-1.1-4-1.1H210v8.7h4.7C216.5,78.9,217.8,78.5,218.7,77.8z"/>
	<path class="st0" d="M241.9,82.3h-10.3l-2.1,4.8h-2.8l8.8-19.3h2.7l8.8,19.3H244L241.9,82.3L241.9,82.3z M240.9,80.1l-4.2-9.5
		l-4.2,9.5H240.9z"/>
</g>
</svg>
