<svg id="Layer_1" data-name="Layer 1" xmlns="http://www.w3.org/2000/svg" viewBox="0 0 184.94 151.91"><defs><style>.cls-1{fill:#2671e3;}</style></defs><path class="cls-1" d="M162.31,99.77,180,113.54c-14.81,23.87-49.56,35.67-80.88,19.52C61.6,113.74,57.77,70.41,72.73,44.58c1.27.94,2.57,1.79,3.75,2.8A38.19,38.19,0,0,1,87,61.19a11.65,11.65,0,0,1,.74,6.8c-2.66,17.42,2.44,32,16.91,42.46,17.93,12.92,43.17,8.6,56.55-9.17Z"/><path class="cls-1" d="M27.49,117.85c14.41-.56,28.91,1.75,42.66-4.42a62,62,0,0,0,15.53,17.48,55.9,55.9,0,0,1-13.93,6.19,74.87,74.87,0,0,1-21.6,3.09c-14.61-.05-29.22,0-43.82-.05H4.52V11.53c.58,0,1.13-.11,1.69-.11,14.35,0,28.71-.06,43.06.08,10.83.1,21.37,1.86,31.29,6.42,18.88,8.69,30.92,23.11,35.53,43.4,3.36,14.83,1.93,29.28-5,43-.48,1-1.06,1.86-1.68,2.94a34.22,34.22,0,0,1-9.47-8c-1-1.18-1.77-2.48-2.7-3.69-2.7-3.51-3.47-7.09-2.73-11.76,2-12.69-.63-24.58-9-34.68A40,40,0,0,0,57.61,34.38c-8.51-.81-17.12-.47-25.69-.63-1.44,0-2.88,0-4.43,0Z"/><path class="cls-1" d="M112.25,38.28A57.37,57.37,0,0,0,96.23,21c11.77-7.38,24.36-10,37.7-9,19.56,1.45,34.88,10.55,46.49,26.51l-18.55,13C148.5,35.18,132,31,112.25,38.28Z"/></svg>