<svg id="Layer_1" data-name="Layer 1" xmlns="http://www.w3.org/2000/svg" viewBox="0 0 595.27559 151.91209"><defs><style>.cls-1{fill:#fff;}</style></defs><path class="cls-1" d="M210.86487,98.3061V10.1819c15.445.91841,30.86414,1.13579,46.08225,2.997,9.45805,1.1567,16.14285,7.96841,21.36705,15.93908,9.68943,14.78323,10.97458,45.3561-7.71249,59.71378C265.50641,92.74641,259,95.0383,252.852,97.28293c-3.30834,1.20787-7.22739.94366-10.87485.98366C231.70285,98.37952,221.42654,98.3061,210.86487,98.3061Zm17.30167-15.48469c13.23575.059,26.97029,2.49378,34.65982-11.40653,6.43233-11.62774,5.97079-23.94463-1.29788-35.05463-8.18274-12.50713-21.228-8.815-33.36194-8.85018Z"/><path class="cls-1" d="M453.299,101.86525c4.649,0,9.28073-.12835,13.89433.104.96988.04891,2.15046,1.24866,2.76022,2.21653a15.1326,15.1326,0,0,0,15.54637,6.51036c5.81747-1.1389,10.19128-4.23048,11.25975-10.47567.59592-3.483.68674-7.05256,1.05741-11.16207-13.45222,9.05482-23.61372,9.82659-33.728,2.59591a29.47054,29.47054,0,0,1-7.19115-7.47774c-7.97016-11.93762-6.35372-32.28969,3.13649-42.98445,8.66351-9.76311,24.73085-10.97378,34.72338-2.62177.58824.49165,1.21369.93866,2.30741,1.78012.28857-2.15146.49833-3.71542.74537-5.55756h16.24863c0,4.58939-.00485,8.88061.00088,13.17177.021,15.64567.18012,31.29268.028,46.93665-.1318,13.55042-6.6079,23.53292-17.49561,27.70036-12.68833,4.85665-29.42942,1.92525-37.39168-6.54738C455.09691,111.68738,453.825,108.69586,453.299,101.86525ZM497.62374,65.389c-.00646-9.25915-3.30893-15.26976-9.61247-17.495-8.09613-2.85805-15.69741,1.23756-18.21262,9.813-3.17711,10.83219,1.36878,21.85414,9.91652,24.04335C490.21471,84.43952,497.63231,77.66269,497.62374,65.389Z"/><path class="cls-1" d="M353.57732,79.76866c-2.36447,9.59482-8.15108,15.97885-16.93937,18.431-23.66973,6.60439-42.14264-6.51579-42.02328-29.50835.03363-6.479.94582-13.41647,3.41419-19.32531,5.49692-13.15847,18.0688-18.3764,34.18124-15.57451,10.69641,1.86006,19.91047,12.48415,21.22013,24.84665.39857,3.76219.06179,7.60219.06179,11.99006H310.96456c.04019,7.84975,3.67073,13.21475,10.10073,15.50481,6.32618,2.25317,11.85086.4361,16.69031-5.27774a4.80876,4.80876,0,0,1,3.1673-1.67543C345.0233,79.18446,349.12336,79.53092,353.57732,79.76866ZM310.83514,59.7169h26.498c-.11111-7.77433-4.77086-13.0061-11.83021-13.58372C317.8468,45.50677,312.60087,50.19348,310.83514,59.7169Z"/><path class="cls-1" d="M542.77453,98.04421H526.46947V34.83482h15.69707l.45461,6.67458c1.12613-.96385,1.96363-1.57775,2.68058-2.3097,11.29853-11.53427,31.15945-6.8486,35.88795,8.50427a19.11351,19.11351,0,0,1,1.10827,5.35628c.08832,14.91238.05006,29.82555.05006,45.00494H566.42508c0-6.51274.005-12.76988-.00143-19.02695-.00665-6.488.13725-12.98134-.07982-19.4625-.24881-7.42793-4.31677-11.87055-10.61848-12.07512-7.5278-.24427-12.28451,3.768-12.61487,11.60433-.43415,10.29695-.25647,20.61987-.3332,30.93164C542.75883,92.51464,542.77453,94.993,542.77453,98.04421Z"/><path class="cls-1" d="M362.67369,78.96287c3.46662,0,6.45374.1122,9.42849-.03152,2.9968-.14476,5.11415.49585,6.97171,3.357,3.25387,5.01183,13.19345,6.46768,17.99625,2.76665a7.12886,7.12886,0,0,0,2.54485-5.38214,6.47956,6.47956,0,0,0-3.65845-4.5239c-5.35146-1.7472-10.93417-2.77817-16.4121-4.14829-6.398-1.60031-11.75581-4.68269-14.62192-10.96141a18.08818,18.08818,0,0,1,6.45473-22.52158c8.7903-6.07159,25.4567-5.98842,34.09984.28634a18.84357,18.84357,0,0,1,8.03683,14.37774c-6.04588-.53055-11.93235,2.67006-17.1003-3.33908-3.211-3.73378-8.38019-4.27128-12.9358-1.98775-1.95192.9783-4.37237,3.43549-4.37033,5.21824.002,1.776,2.44911,4.44134,4.39308,5.14506a100.96627,100.96627,0,0,0,14.49418,3.55189c12.03,2.42085,17.47054,8.16719,17.543,18.75939.06714,9.81061-6.81942,17.48628-17.87722,19.554-7.8389,1.46579-15.6532,1.1547-22.97592-2.31347C367.65139,93.43885,362.92039,88.25952,362.67369,78.96287Z"/><path class="cls-1" d="M442.49356,34.83574V98.0258H426.07423V34.83574Z"/><path class="cls-1" d="M435.12651,26.57019c-5.84631-.23043-9.96021-4.29311-9.75923-9.63781.19527-5.19469,4.56381-9.03079,10.01469-8.79414a9.49547,9.49547,0,0,1,9.222,9.72213A8.96873,8.96873,0,0,1,435.12651,26.57019Z"/><path class="cls-1" d="M170.70508,97.95944,188.372,111.73058c-14.81232,23.86636-49.56832,35.666-80.88793,19.52026C69.99846,111.92651,66.17047,68.59336,81.12891,42.76205c1.26689.9405,2.56988,1.79739,3.74734,2.8015A38.29322,38.29322,0,0,1,95.38271,59.37484a11.70533,11.70533,0,0,1,.73534,6.80341C93.4569,83.594,98.56051,98.21936,113.02549,108.6396c17.92851,12.91531,43.16874,8.59261,56.55212-9.17588C169.91841,99.01127,170.25712,98.55724,170.70508,97.95944Z"/><path class="cls-1" d="M35.8869,116.03123c14.40812-.55658,28.91116,1.75013,42.66289-4.41043a62.02661,62.02661,0,0,0,15.52977,17.47876,56.10362,56.10362,0,0,1-13.92936,6.19049,74.70758,74.70758,0,0,1-21.599,3.084c-14.609-.045-29.21819-.0355-43.82731-.04845-.55937-.00049-1.11874,0-1.8045,0V9.71124c.58181-.03956,1.1331-.11019,1.68432-.10968,14.35506.01316,28.71088-.05061,43.06492.08054C68.49471,9.781,79.0418,11.54226,88.9602,16.10556c18.87907,8.686,30.92206,23.1152,35.52412,43.39886,3.366,14.83554,1.93461,29.28033-5.02444,42.99072-.48369.95293-1.06015,1.85874-1.683,2.94229a34.11055,34.11055,0,0,1-9.46749-8.01638c-.96871-1.17113-1.77064-2.47856-2.6982-3.68571-2.70032-3.51431-3.47457-7.09167-2.73365-11.7602,2.0133-12.68613-.6321-24.5776-8.95771-34.6818A40.05708,40.05708,0,0,0,66.00538,32.56482c-8.50556-.80429-17.11952-.46532-25.68544-.6251-1.44237-.02691-2.88566-.0038-4.433-.0038Z"/><path class="cls-1" d="M120.65241,36.46713a57.3745,57.3745,0,0,0-16.02781-17.319c11.77807-7.38261,24.36285-10.02184,37.70653-9.027C161.88421,11.579,177.21319,20.675,188.81332,36.63764l-18.5415,12.96922C156.90048,33.36623,140.42576,29.136,120.65241,36.46713Z"/><path class="cls-1" d="M217.82227,135.33971a10.423,10.423,0,0,1-3.95118-4.21875,14.68012,14.68012,0,0,1,0-12.585,10.41949,10.41949,0,0,1,3.95118-4.22656,10.97445,10.97445,0,0,1,5.71386-1.4961,11.71614,11.71614,0,0,1,5.04541,1.05469,9.41152,9.41152,0,0,1,3.67578,3.03027,10.07809,10.07809,0,0,1,1.79444,4.63672h-4.376a6.77542,6.77542,0,0,0-1.19629-2.67676,5.83594,5.83594,0,0,0-2.12549-1.76269,6.20262,6.20262,0,0,0-2.75488-.61426,6.32515,6.32515,0,0,0-3.55762,1.01563,6.71819,6.71819,0,0,0-2.4082,2.91211,11.71327,11.71327,0,0,0,0,8.83886,6.64386,6.64386,0,0,0,2.4165,2.89649,6.33868,6.33868,0,0,0,3.5337,1.00781,6.64716,6.64716,0,0,0,2.83349-.59863,5.48721,5.48721,0,0,0,2.12549-1.71582,6.10365,6.10365,0,0,0,1.10156-2.62891h4.40772a9.988,9.988,0,0,1-1.72364,4.4707,9.3785,9.3785,0,0,1-3.65185,3.05371,11.63124,11.63124,0,0,1-5.14014,1.10254A10.97444,10.97444,0,0,1,217.82227,135.33971Z"/><path class="cls-1" d="M250.59961,113.17565H265.6958v3.542H254.78711v6.26562H264.8457v3.46289H254.78711v6.48536H265.8374v3.542H250.59961Z"/><path class="cls-1" d="M282.63721,113.17565h4.23437l14.60791,21.67675-3.69873.01563V113.17565h4.09229V136.4735h-4.15528l-14.57666-21.56641h3.542V136.4735h-4.0459Z"/><path class="cls-1" d="M318.09082,113.17565h18.22852V116.702h-7.02051V136.4735H325.127V116.702h-7.03613Z"/><path class="cls-1" d="M371.36426,113.17565v15.23828a8.23131,8.23131,0,0,1-1.18067,4.415,7.86974,7.86974,0,0,1-3.31347,2.96,12.082,12.082,0,0,1-9.83887,0,7.81418,7.81418,0,0,1-3.30566-2.96,8.299,8.299,0,0,1-1.17286-4.43067V113.17565h4.17188v15.0332a5.09449,5.09449,0,0,0,.66113,2.60547,4.62775,4.62775,0,0,0,1.8418,1.7793,6.1538,6.1538,0,0,0,5.46973-.00879,4.64121,4.64121,0,0,0,1.84179-1.77051,5.06244,5.06244,0,0,0,.65332-2.58984V113.17565Z"/><path class="cls-1" d="M388.90332,113.17565h9.28711a9.28178,9.28178,0,0,1,4.27441.93652,6.60683,6.60683,0,0,1,2.80957,2.65234,7.88166,7.88166,0,0,1,.99219,3.9043,7.48664,7.48664,0,0,1-1,3.833,6.66161,6.66161,0,0,1-2.81738,2.582,9.4924,9.4924,0,0,1-4.30567.9209H395.9082l-3.03808-3.542H397.75a4.82384,4.82384,0,0,0,2.22754-.48047,3.42872,3.42872,0,0,0,1.44043-1.35352,3.81005,3.81005,0,0,0,.48828-1.99121,4.20118,4.20118,0,0,0-.51172-2.03125,3.41544,3.41544,0,0,0-1.43262-1.36914,4.8017,4.8017,0,0,0-2.24316-.48828H393.0752V136.4735h-4.17188Zm3.998,11.25586,4.89551.01562,9.209,12.02637h-5.03711Z"/><path class="cls-1" d="M430.00781,113.17565h4.89551l8.56348,23.29785h-4.502l-8.07519-22.79395,2.77051-.04687-7.96485,22.84082h-4.2666Zm-3.80957,13.93164h12.45215V130.618H426.19824Z"/></svg>