<?xml version="1.0" encoding="utf-8"?>
<!-- Generator: Adobe Illustrator 24.3.0, SVG Export Plug-In . SVG Version: 6.00 Build 0)  -->
<svg version="1.1" id="Layer_1" xmlns="http://www.w3.org/2000/svg" xmlns:xlink="http://www.w3.org/1999/xlink" x="0px" y="0px"
	 viewBox="0 0 595.3 151.9" style="enable-background:new 0 0 595.3 151.9;" xml:space="preserve">
<style type="text/css">
	.st0{fill:#196BFF;}
	.st1{fill:#1B1B1B;}
</style>
<path class="st0" d="M210.9,98.3V10.2c15.4,0.9,30.9,1.1,46.1,3c9.5,1.2,16.1,8,21.4,15.9c9.7,14.8,11,45.4-7.7,59.7
	c-5.1,3.9-11.6,6.2-17.7,8.5c-3.3,1.2-7.2,0.9-10.9,1C231.7,98.4,221.4,98.3,210.9,98.3z M228.2,82.8c13.2,0.1,27,2.5,34.7-11.4
	c6.4-11.6,6-23.9-1.3-35.1c-8.2-12.5-21.2-8.8-33.4-8.9V82.8z"/>
<path class="st0" d="M453.3,101.9c4.6,0,9.3-0.1,13.9,0.1c1,0,2.2,1.2,2.8,2.2c3.4,5.1,9.5,7.7,15.5,6.5c5.8-1.1,10.2-4.2,11.3-10.5
	c0.6-3.5,0.7-7.1,1.1-11.2c-13.5,9.1-23.6,9.8-33.7,2.6c-2.8-2-5.3-4.6-7.2-7.5c-8-11.9-6.4-32.3,3.1-43c8.7-9.8,24.7-11,34.7-2.6
	c0.6,0.5,1.2,0.9,2.3,1.8c0.3-2.2,0.5-3.7,0.7-5.6h16.2c0,4.6,0,8.9,0,13.2c0,15.6,0.2,31.3,0,46.9c-0.1,13.6-6.6,23.5-17.5,27.7
	c-12.7,4.9-29.4,1.9-37.4-6.5C455.1,111.7,453.8,108.7,453.3,101.9z M497.6,65.4c0-9.3-3.3-15.3-9.6-17.5
	c-8.1-2.9-15.7,1.2-18.2,9.8c-3.2,10.8,1.4,21.9,9.9,24C490.2,84.4,497.6,77.7,497.6,65.4z"/>
<path class="st0" d="M353.6,79.8c-2.4,9.6-8.2,16-16.9,18.4c-23.7,6.6-42.1-6.5-42-29.5c0-6.5,0.9-13.4,3.4-19.3
	c5.5-13.2,18.1-18.4,34.2-15.6c10.7,1.9,19.9,12.5,21.2,24.8c0.4,3.8,0.1,7.6,0.1,12H311c0,7.8,3.7,13.2,10.1,15.5
	c6.3,2.3,11.9,0.4,16.7-5.3c0.8-0.9,1.9-1.5,3.2-1.7C345,79.2,349.1,79.5,353.6,79.8z M310.8,59.7h26.5c-0.1-7.8-4.8-13-11.8-13.6
	C317.8,45.5,312.6,50.2,310.8,59.7z"/>
<path class="st0" d="M542.8,98h-16.3V34.8h15.7l0.5,6.7c1.1-1,2-1.6,2.7-2.3c11.3-11.5,31.2-6.8,35.9,8.5c0.6,1.7,1,3.5,1.1,5.4
	c0.1,14.9,0.1,29.8,0.1,45h-15.9c0-6.5,0-12.8,0-19c0-6.5,0.1-13-0.1-19.5c-0.2-7.4-4.3-11.9-10.6-12.1c-7.5-0.2-12.3,3.8-12.6,11.6
	c-0.4,10.3-0.3,20.6-0.3,30.9C542.8,92.5,542.8,95,542.8,98z"/>
<path class="st0" d="M362.7,79c3.5,0,6.5,0.1,9.4,0c3-0.1,5.1,0.5,7,3.4c3.3,5,13.2,6.5,18,2.8c1.6-1.3,2.5-3.3,2.5-5.4
	c-0.4-2-1.8-3.7-3.7-4.5c-5.4-1.7-10.9-2.8-16.4-4.1c-6.4-1.6-11.8-4.7-14.6-11c-3.7-8.1-0.9-17.6,6.5-22.5c8.8-6.1,25.5-6,34.1,0.3
	c4.7,3.3,7.7,8.6,8,14.4c-6-0.5-11.9,2.7-17.1-3.3c-3.2-3.7-8.4-4.3-12.9-2c-2,1-4.4,3.4-4.4,5.2c0,1.8,2.4,4.4,4.4,5.1
	c4.7,1.5,9.6,2.7,14.5,3.6c12,2.4,17.5,8.2,17.5,18.8c0.1,9.8-6.8,17.5-17.9,19.6c-7.8,1.5-15.7,1.2-23-2.3
	C367.7,93.4,362.9,88.3,362.7,79z"/>
<path class="st0" d="M442.5,34.8V98h-16.4V34.8H442.5z"/>
<path class="st0" d="M435.1,26.6c-5.8-0.2-10-4.3-9.8-9.6c0.2-5.2,4.6-9,10-8.8c5.2,0.1,9.3,4.5,9.2,9.7c-0.1,5-4.3,8.9-9.2,8.7
	C435.3,26.6,435.2,26.6,435.1,26.6z"/>
<path class="st0" d="M170.7,98l17.7,13.8c-14.8,23.9-49.6,35.7-80.9,19.5C70,111.9,66.2,68.6,81.1,42.8c1.3,0.9,2.6,1.8,3.7,2.8
	c4.5,3.7,8.1,8.5,10.5,13.8c0.9,2.1,1.2,4.5,0.7,6.8c-2.7,17.4,2.4,32,16.9,42.5c17.9,12.9,43.2,8.6,56.6-9.2
	C169.9,99,170.3,98.6,170.7,98z"/>
<path class="st1" d="M35.9,116c14.4-0.6,28.9,1.8,42.7-4.4c4,6.8,9.3,12.7,15.5,17.5c-4.3,2.7-9,4.8-13.9,6.2
	c-7,2.1-14.3,3.1-21.6,3.1c-14.6,0-29.2,0-43.8,0c-0.6,0-1.1,0-1.8,0V9.7c0.6,0,1.1-0.1,1.7-0.1c14.4,0,28.7-0.1,43.1,0.1
	C68.5,9.8,79,11.5,89,16.1c18.9,8.7,30.9,23.1,35.5,43.4c3.4,14.8,1.9,29.3-5,43c-0.5,1-1.1,1.9-1.7,2.9c-3.6-2.1-6.8-4.8-9.5-8
	c-1-1.2-1.8-2.5-2.7-3.7c-2.7-3.5-3.5-7.1-2.7-11.8c2-12.7-0.6-24.6-9-34.7C87,38.8,76.9,33.4,66,32.6c-8.5-0.8-17.1-0.5-25.7-0.6
	c-1.4,0-2.9,0-4.4,0L35.9,116z"/>
<path class="st0" d="M120.7,36.5c-4.1-6.8-9.5-12.7-16-17.3c11.8-7.4,24.4-10,37.7-9c19.6,1.5,34.9,10.6,46.5,26.5l-18.5,13
	C156.9,33.4,140.4,29.1,120.7,36.5z"/>
<path class="st0" d="M217.8,135.3c-1.7-1-3.1-2.5-4-4.2c-1.9-4-1.9-8.6,0-12.6c0.9-1.8,2.3-3.2,4-4.2c1.7-1,3.7-1.5,5.7-1.5
	c1.7,0,3.5,0.3,5,1.1c1.5,0.7,2.7,1.7,3.7,3c1,1.4,1.6,3,1.8,4.6h-4.4c-0.2-1-0.6-1.9-1.2-2.7c-0.6-0.7-1.3-1.4-2.1-1.8
	c-0.9-0.4-1.8-0.6-2.8-0.6c-1.3,0-2.5,0.3-3.6,1c-1.1,0.7-1.9,1.7-2.4,2.9c-1.2,2.8-1.2,6,0,8.8c0.5,1.2,1.3,2.2,2.4,2.9
	c1.1,0.7,2.3,1,3.5,1c1,0,1.9-0.2,2.8-0.6c0.8-0.4,1.6-1,2.1-1.7c0.6-0.8,0.9-1.7,1.1-2.6h4.4c-0.2,1.6-0.8,3.1-1.7,4.5
	c-0.9,1.3-2.2,2.4-3.7,3.1c-1.6,0.8-3.4,1.1-5.1,1.1C221.5,136.9,219.6,136.4,217.8,135.3z"/>
<path class="st1" d="M250.6,113.2h15.1v3.5h-10.9v6.3h10.1v3.5h-10.1v6.5h11.1v3.5h-15.2V113.2z"/>
<path class="st1" d="M282.6,113.2h4.2l14.6,21.7l-3.7,0v-21.7h4.1v23.3h-4.2l-14.6-21.6h3.5v21.6h-4V113.2z"/>
<path class="st1" d="M318.1,113.2h18.2v3.5h-7v19.8h-4.2v-19.8h-7L318.1,113.2z"/>
<path class="st1" d="M371.4,113.2v15.2c0,1.6-0.4,3.1-1.2,4.4c-0.8,1.3-1.9,2.3-3.3,3c-3.1,1.4-6.7,1.4-9.8,0
	c-1.4-0.6-2.5-1.7-3.3-3c-0.8-1.3-1.2-2.9-1.2-4.4v-15.2h4.2v15c0,0.9,0.2,1.8,0.7,2.6c0.4,0.8,1.1,1.4,1.8,1.8
	c1.7,0.9,3.7,0.8,5.5,0c0.8-0.4,1.4-1,1.8-1.8c0.4-0.8,0.7-1.7,0.7-2.6v-15H371.4z"/>
<path class="st1" d="M388.9,113.2h9.3c1.5,0,2.9,0.3,4.3,0.9c1.2,0.6,2.2,1.5,2.8,2.7c0.7,1.2,1,2.5,1,3.9c0,1.3-0.3,2.7-1,3.8
	c-0.7,1.1-1.6,2-2.8,2.6c-1.3,0.6-2.8,1-4.3,0.9h-2.2l-3-3.5h4.9c0.8,0,1.5-0.1,2.2-0.5c0.6-0.3,1.1-0.8,1.4-1.4
	c0.3-0.6,0.5-1.3,0.5-2c0-0.7-0.2-1.4-0.5-2c-0.3-0.6-0.8-1.1-1.4-1.4c-0.7-0.3-1.5-0.5-2.2-0.5h-4.6v19.7h-4.2V113.2z M392.9,124.4
	l4.9,0l9.2,12h-5L392.9,124.4z"/>
<path class="st1" d="M430,113.2h4.9l8.6,23.3H439l-8.1-22.8l2.8,0l-8,22.8h-4.3L430,113.2z M426.2,127.1h12.5v3.5h-12.5V127.1z"/>
</svg>
