<?xml version="1.0" encoding="utf-8"?>
<!-- Generator: Adobe Illustrator 24.3.0, SVG Export Plug-In . SVG Version: 6.00 Build 0)  -->
<svg version="1.1" id="Layer_1" xmlns="http://www.w3.org/2000/svg" xmlns:xlink="http://www.w3.org/1999/xlink" x="0px" y="0px"
	 width="74.3px" height="74.3px" viewBox="0 0 74.3 74.3" style="enable-background:new 0 0 74.3 74.3;" xml:space="preserve">
<style type="text/css">
	.st0{fill:#FF2A40;}
	.st1{opacity:0.25;fill:#FFFFFF;enable-background:new    ;}
	.st2{opacity:0.15;fill:#FFFFFF;enable-background:new    ;}
	.st3{fill:url(#SVGID_1_);}
	.st4{fill:url(#SVGID_2_);}
	.st5{fill:url(#SVGID_3_);}
	.st6{fill:url(#SVGID_4_);}
	.st7{fill:url(#SVGID_5_);}
	.st8{fill:url(#SVGID_6_);}
	.st9{fill:url(#SVGID_7_);}
	.st10{fill:#FFB400;}
	.st11{fill:url(#SVGID_8_);}
	.st12{fill:url(#SVGID_9_);}
	.st13{fill:url(#SVGID_10_);}
	.st14{fill:#196BFF;}
	.st15{fill:url(#SVGID_11_);}
	.st16{fill:url(#SVGID_12_);}
	.st17{fill:url(#SVGID_13_);}
	.st18{fill:url(#SVGID_14_);}
	.st19{fill:url(#SVGID_15_);}
	.st20{fill:url(#SVGID_16_);}
	.st21{fill:#010101;}
</style>
<g>
	<path d="M65.8,15c-19.1,0-38.2,0-57.3,0c-0.5,0-0.6,0.1-0.6,0.6c0,4.4,0,8.8,0,13.2c0,0.4,0.1,0.6,0.4,0.9c1.4,1.3,2.7,2.6,4.1,4
		c0.5,0.5,1,1,1.5,1.6c0.1,0,0.1-0.1,0.2-0.1c0-0.2,0-0.5,0-0.7c0-4.5,0-9.1,0-13.6c0-0.5,0.1-0.7,0.7-0.7c7.7,0,15.4,0,23.2,0
		c0.5,0,0.7,0.1,0.7,0.7c0,7.6,0,15.2,0,22.7c0,0.5-0.1,0.7-0.7,0.7c-4.7,0-9.3,0-14,0c-0.2,0-0.5-0.1-0.7,0.1
		c0.8,0.9,1.6,1.9,3,1.4c0,0,0.1,0,0.1,0c2.1,0.3,3.7,1.4,5,3c0.2,0.3,0.4,0.5,0.9,0.5c11.3,0,22.5,0,33.8,0c0.5,0,0.6-0.2,0.6-0.6
		c0-11,0-21.9,0-32.9C66.4,15.1,66.3,15,65.8,15z M59.3,44.1c-4.9,0-9.8,0-14.7,0c-0.1,0-0.3,0-0.4,0c-0.4-0.1-0.6-0.3-0.6-0.6
		c0-0.4,0.2-0.6,0.6-0.6c0.4,0,0.9,0,1.3,0c2.2,0,4.3,0,6.5,0c2.4,0,4.8,0,7.3,0c0.4,0,1-0.1,1,0.6C60.3,44.1,59.8,44.1,59.3,44.1z
		 M59.8,37.3c-0.2,0-0.3,0-0.5,0c-4.9,0-9.7,0-14.6,0c-0.1,0-0.3,0-0.4,0c-0.4,0-0.6-0.2-0.6-0.6c0-0.3,0.2-0.6,0.6-0.6
		c0.8,0,1.5,0,2.3,0c1.8,0,3.6,0,5.4,0c2.4,0,4.8,0,7.3,0c0.2,0,0.4,0,0.6,0c0.4,0,0.5,0.3,0.5,0.6C60.3,37.1,60.1,37.2,59.8,37.3z
		 M59.7,31.1c-2.6,0-5.2,0-7.8,0c-2.5,0-5.1,0-7.6,0c-0.5,0-0.7-0.1-0.6-0.6c0-1.1,0-2.1,0-3.2c0-0.4,0.1-0.5,0.5-0.5
		c5.2,0,10.4,0,15.7,0c0.4,0,0.5,0.1,0.5,0.5c0,1.1,0,2.2,0,3.2C60.4,31,60.1,31.1,59.7,31.1z M60.3,20.6c0,1.1,0,2.1,0,3.2
		c0,0.4,0,0.5-0.5,0.5c-5.2,0-10.5,0-15.7,0c-0.4,0-0.5-0.1-0.5-0.5c0-1.1,0-2.2,0-3.3c0-0.5,0.2-0.5,0.6-0.5c2.6,0,5.2,0,7.8,0
		c2.6,0,5.1,0,7.7,0C60.2,20,60.4,20.1,60.3,20.6z"/>
	<path d="M7.9,13.1c0,0.5,0.1,0.7,0.7,0.7c19.1,0,38.2,0,57.2,0c0.6,0,0.7-0.2,0.7-0.7c0-3.9,0-7.8,0-11.7c0-0.7-0.2-0.8-0.8-0.8
		c-9.5,0-18.9,0-28.4,0c-9.5,0-19.1,0-28.6,0c-0.5,0-0.7,0.1-0.7,0.7C7.9,5.2,7.9,9.2,7.9,13.1z M43.9,6.1c0.5-1.2,1.5-1.7,2.7-1.7
		c3.6,0,7.2,0,10.8,0c1.5,0,2.6,0.9,2.9,2.1c0.3,1.2-0.3,2.6-1.4,3.2c-0.5,0.3-1,0.4-1.6,0.4c-1.7,0-3.5,0-5.2,0c-1.8,0-3.6,0-5.4,0
		C44.4,10,43.1,8.1,43.9,6.1z M23.4,4.4c1.6,0,2.8,1.3,2.8,2.9c0,1.6-1.3,2.8-2.9,2.8c-1.6,0-2.8-1.3-2.7-2.9
		C20.6,5.5,21.8,4.3,23.4,4.4z M14.4,4.3c1.5,0,2.9,1.4,2.9,2.9c0,1.5-1.5,2.8-2.9,2.8c-1.5,0-2.8-1.4-2.8-3
		C11.5,5.7,12.9,4.3,14.4,4.3z"/>
	<path d="M70.9,61.7c-0.1-1.9-0.1-3.8,0-5.7c0-0.7-0.2-0.9-0.9-0.9c-11.4,0-22.7,0-34.1,0c-0.7,0-1.3,0-2,0c-0.5,0-0.7,0.1-0.7,0.6
		c0,0.7-0.1,1.4-0.4,2.1c-0.2,0.5-0.5,0.8-1.1,0.4c-1.5-0.9-3.1-1.1-4.7-0.9c-1.9,0.2-3.4-0.5-4.7-1.9c-0.3-0.3-0.5-0.4-0.9-0.4
		c-5.8,0-11.6,0-17.4,0c-0.6,0-0.7,0.2-0.7,0.7c0,1.9,0,3.9,0,5.8c0,0.7,0.2,0.8,0.8,0.8c11,0,22,0,32.9,0s22,0,32.9,0
		C70.7,62.5,70.9,62.4,70.9,61.7z"/>
	<path class="st14" d="M15.6,36.8c1.9,1.9,3.9,3.8,5.8,5.7c0.3,0.3,0.6,0.4,0.9,0.4c4.7,0,9.5,0,14.2,0c0.6,0,0.7-0.2,0.7-0.8
		c0-6.7,0-13.4,0-20.1c0-0.6-0.1-0.7-0.7-0.7c-3.5,0-6.9,0-10.4,0c-3.5,0-7,0-10.4,0c-0.5,0-0.7,0.1-0.7,0.7c0,4.6,0,9.3,0,13.9
		C15.1,36.2,15.3,36.5,15.6,36.8z"/>
	<path class="st14" d="M33.3,50.3c-0.2,0-0.3,0-0.5,0c-0.4,0-0.5,0.1-0.3,0.5c0.4,0.8,0.6,1.6,0.7,2.4c0,0.6,0.2,0.8,0.9,0.8
		c6,0,12,0,18.1,0c6,0,12,0,18,0c0.7,0,0.9-0.1,0.9-0.9c0-11.1,0-22.1,0-33.2c0-0.1,0-0.3,0-0.4c0-0.4-0.1-0.5-0.5-0.5
		c-0.7,0-1.3,0-2,0c-0.6-0.1-0.8,0.1-0.8,0.8c0,9.9,0,19.8,0,29.6c0,0.7-0.2,0.8-0.8,0.8C55.6,50.3,44.5,50.3,33.3,50.3z"/>
	<path class="st14" d="M45.8,64.2c0-0.4-0.1-0.6-0.6-0.6c-5.4,0-10.8,0-16.3,0c-0.4,0-0.6,0.1-0.5,0.5c0,3-0.4,5.9-1.3,8.7
		c-0.2,0.7,0,0.8,0.7,0.8c3.1,0,6.1,0,9.2,0c3.2,0,6.4,0,9.6,0c0.5,0,0.6,0,0.5-0.6C46.3,70.2,45.8,67.2,45.8,64.2z"/>
	<path d="M3.4,48c0,1.8,0,3.6,0,5.4c0,0.3-0.1,0.6,0.4,0.6c5.7,0,11.5,0,17.3,0c-0.4-0.9-0.7-1.8-0.7-2.7c0-0.7-0.3-1-1-0.9
		c-4,0-8,0-12,0c-0.7,0-0.8-0.2-0.8-0.8c0-4.1,0-8.1,0-12.2c0-0.3,0.1-0.6-0.2-0.8c-1-1-2-2-3-2.9c-0.1,0.2-0.1,0.5-0.1,0.8
		C3.4,38.9,3.4,43.4,3.4,48z"/>
	<path d="M20.2,48.8c0.3,0.3,0.5,0.4,0.8-0.1c0.5-1.1,1.3-2,2.4-2.6c-0.1-0.1-0.1-0.2-0.2-0.2C18,40.8,12.8,35.8,7.7,30.7
		c-0.4-0.4-0.7-0.8-1.2-1.1c-0.9-0.7-1.8-0.7-2.5-0.1c-0.9,0.8-0.8,2,0.2,3C9.5,38,14.9,43.4,20.2,48.8z"/>
	<path class="st14" d="M28.1,47.5c-2.6-1.5-5.6-0.4-6.3,2.4c-0.5,1.8,0,3.4,1.3,4.8c1.1,1.2,2.5,1.6,4.1,1.6c1.6,0,3.2-0.1,4.6,0.8
		C32.8,53.5,31.1,49.3,28.1,47.5z"/>
	<path class="st14" d="M8.3,49.1c3.5,0,6.9,0,10.4,0c0-0.1,0.1-0.1,0.1-0.2c-3.6-3.5-7.2-7-10.9-10.6c0,3.5,0,7,0,10.4
		C7.9,49.1,8.1,49.1,8.3,49.1z"/>
	<path d="M7.8,38.3C7.9,38.3,7.9,38.3,7.8,38.3C7.9,38.3,7.9,38.3,7.8,38.3C7.9,38.2,8,38.2,7.8,38.3z"/>
	<path class="st21" d="M3.4,28.4c1.1-0.7,2.2-0.6,3.3-0.2c0-3,0-5.9,0-8.8c0-0.3-0.1-0.4-0.4-0.4c-0.8,0-1.6,0-2.4,0
		c-0.4,0-0.5,0.1-0.5,0.5C3.4,22.5,3.4,25.4,3.4,28.4z"/>
	<path class="st14" d="M58.5,21.2c-4.1,0-8.2,0-12.4,0c-1.3,0-1.2,0-1.2,1.2c0,0.5,0.1,0.6,0.6,0.6c2.2,0,4.3,0,6.5,0c2,0,4,0,6,0
		c1.2,0,1.1,0,1.2-1.2C59.2,21.4,59,21.2,58.5,21.2z"/>
	<path class="st14" d="M58.5,28c-4.1,0-8.2,0-12.4,0c-1.3,0-1.2,0-1.2,1.2c0,0.5,0.1,0.6,0.6,0.6c2.2,0,4.3,0,6.5,0c2,0,4,0,6,0
		c1.2,0,1.1,0,1.2-1.2C59.2,28.1,59,28,58.5,28z"/>
	<path class="st14" d="M46.7,8.9c1.8,0,3.5,0,5.3,0c0.6,0,1.3,0,1.9,0c1.2,0,2.3,0,3.5,0c1.4-0.1,2.1-1.4,1.4-2.6
		c-0.4-0.6-1-0.7-1.6-0.7c-3.5,0-7,0-10.5,0c-0.1,0-0.3,0-0.4,0c-1,0.1-1.6,0.9-1.4,1.9C45,8.3,45.7,8.8,46.7,8.9z"/>
	<path class="st14" d="M23.4,8.8c0.9,0,1.6-0.7,1.6-1.7c0-0.9-0.7-1.6-1.6-1.6c-0.9,0-1.6,0.7-1.6,1.7C21.8,8.2,22.4,8.9,23.4,8.8z"
		/>
	<path class="st14" d="M14.3,8.9c0.8,0,1.7-0.8,1.7-1.6c0-0.9-0.7-1.7-1.7-1.7c-0.9,0-1.7,0.8-1.7,1.6C12.7,8.1,13.5,8.9,14.3,8.9z"
		/>
</g>
</svg>
