<?xml version="1.0" encoding="utf-8"?>
<!-- Generator: Adobe Illustrator 24.3.0, SVG Export Plug-In . SVG Version: 6.00 Build 0)  -->
<svg version="1.1" id="Layer_1" xmlns="http://www.w3.org/2000/svg" xmlns:xlink="http://www.w3.org/1999/xlink" x="0px" y="0px"
	 width="74.3px" height="74.3px" viewBox="0 0 74.3 74.3" style="enable-background:new 0 0 74.3 74.3;" xml:space="preserve">
<style type="text/css">
	.st0{fill:#FF2A40;}
	.st1{opacity:0.25;fill:#FFFFFF;enable-background:new    ;}
	.st2{opacity:0.15;fill:#FFFFFF;enable-background:new    ;}
	.st3{fill:url(#SVGID_1_);}
	.st4{fill:url(#SVGID_2_);}
	.st5{fill:url(#SVGID_3_);}
	.st6{fill:url(#SVGID_4_);}
	.st7{fill:url(#SVGID_5_);}
	.st8{fill:url(#SVGID_6_);}
	.st9{fill:url(#SVGID_7_);}
	.st10{fill:#FFB400;}
	.st11{fill:url(#SVGID_8_);}
	.st12{fill:url(#SVGID_9_);}
	.st13{fill:url(#SVGID_10_);}
	.st14{fill:#196BFF;}
	.st15{fill:url(#SVGID_11_);}
	.st16{fill:url(#SVGID_12_);}
	.st17{fill:url(#SVGID_13_);}
	.st18{fill:url(#SVGID_14_);}
	.st19{fill:url(#SVGID_15_);}
	.st20{fill:url(#SVGID_16_);}
</style>
<g>
	<path class="st14" d="M47.8,27.8H19.7c-1.1,0-1.9,0.9-1.9,1.9c0,1,0.9,1.9,1.9,1.9h28.1c1,0,1.9-0.9,1.9-1.9
		C49.7,28.7,48.9,27.8,47.8,27.8z"/>
	<path class="st14" d="M33.7,47.8H19.7c-1.1,0-1.9,0.9-1.9,1.9c0,1,0.9,1.9,1.9,1.9h14.1c1,0,1.9-0.9,1.9-1.9
		C35.6,48.7,34.8,47.8,33.7,47.8z"/>
	<path class="st14" d="M47.8,38.1H19.7c-1.1,0-1.9,0.9-1.9,1.9c0,1.1,0.9,1.9,1.9,1.9h28.1c1,0,1.9-0.9,1.9-1.9
		C49.7,39,48.9,38.1,47.8,38.1z"/>
	<path class="st14" d="M62.9,9h-2.1v52.3c0,3.5-2.8,6.3-6.3,6.3H15.8v1.9c0,2.2,1.8,4,4,4h43.2c2.2,0,4-1.8,4-4V13
		C67,10.8,65.2,9,62.9,9z"/>
	<path d="M54.5,0.7H25.8V2c0,0.1,0,0.3,0,0.4v11c0,3.1-2.5,5.7-5.7,5.7h-11c-0.1,0-0.2,0-0.3,0H7.3v5v31.5v5.6c0,2.2,1.8,4,4,4h43.1
		c2.2,0,4-1.8,4-4V4.7C58.5,2.5,56.7,0.7,54.5,0.7z M19.7,41.9c-1.1,0-1.9-0.9-1.9-1.9c0-1,0.9-1.9,1.9-1.9h28.1
		c1,0,1.9,0.9,1.9,1.9c0,1.1-0.9,1.9-1.9,1.9H19.7z M35.6,49.8c0,1-0.9,1.9-1.9,1.9H19.7c-1.1,0-1.9-0.9-1.9-1.9
		c0-1.1,0.9-1.9,1.9-1.9h14.1C34.8,47.8,35.6,48.7,35.6,49.8z M47.8,31.6H19.7c-1.1,0-1.9-0.9-1.9-1.9c0-1,0.9-1.9,1.9-1.9h28.1
		c1,0,1.9,0.9,1.9,1.9C49.7,30.8,48.9,31.6,47.8,31.6z"/>
	<path class="st14" d="M9.1,16.9h11.1c1.8,0,3.3-1.5,3.3-3.3V2.5c0-1-0.8-1.7-1.7-1.7c-0.4,0-0.8,0.2-1.2,0.5L7.9,14
		C6.8,15.1,7.6,16.9,9.1,16.9z"/>
</g>
</svg>
