<?xml version="1.0" encoding="utf-8"?>
<!-- Generator: Adobe Illustrator 24.3.0, SVG Export Plug-In . SVG Version: 6.00 Build 0)  -->
<svg version="1.1" id="Layer_1" xmlns="http://www.w3.org/2000/svg" xmlns:xlink="http://www.w3.org/1999/xlink" x="0px" y="0px"
	 width="74.3px" height="74.3px" viewBox="0 0 74.3 74.3" style="enable-background:new 0 0 74.3 74.3;" xml:space="preserve">
<style type="text/css">
	.st0{fill:#FF2A40;}
	.st1{opacity:0.25;fill:#FFFFFF;enable-background:new    ;}
	.st2{opacity:0.15;fill:#FFFFFF;enable-background:new    ;}
	.st3{fill:url(#SVGID_1_);}
	.st4{fill:url(#SVGID_2_);}
	.st5{fill:url(#SVGID_3_);}
	.st6{fill:url(#SVGID_4_);}
	.st7{fill:url(#SVGID_5_);}
	.st8{fill:url(#SVGID_6_);}
	.st9{fill:url(#SVGID_7_);}
	.st10{fill:#FFB400;}
	.st11{fill:url(#SVGID_8_);}
	.st12{fill:url(#SVGID_9_);}
	.st13{fill:url(#SVGID_10_);}
	.st14{fill:#196BFF;}
	.st15{fill:url(#SVGID_11_);}
	.st16{fill:url(#SVGID_12_);}
	.st17{fill:url(#SVGID_13_);}
	.st18{fill:url(#SVGID_14_);}
	.st19{fill:url(#SVGID_15_);}
	.st20{fill:url(#SVGID_16_);}
</style>
<g>
	<path class="st14" d="M39.2,61.3c-5.1,0.3-10.4-1.4-14.5-5.1l0,0v0l0,0c-4.1-3.7-6.3-8.7-6.6-13.8c-0.3-5.1,1.4-10.4,5.1-14.5
		l0-0.1h0l0,0c0.5-0.6,1.1-1.2,1.7-1.7c0.3-0.3,0.7-0.6,1-0.8c-0.1-0.2-0.2-0.4-0.3-0.6c-2.5-4.3-4-7.3-3.4-11.9H0.5v60.1h46.1V59.4
		C44.2,60.5,41.7,61.1,39.2,61.3z M20,55.6c0.7,0,1.2,0.5,1.2,1.2c0,0.7-0.6,1.2-1.2,1.2h-4.2c-0.7,0-1.2-0.6-1.2-1.2
		c0-0.7,0.6-1.2,1.2-1.2H20z M17.8,30.1h-3.1c-0.7,0-1.2-0.6-1.2-1.2c0-0.7,0.5-1.2,1.2-1.2h3.1c0.7,0,1.2,0.5,1.2,1.2
		C19,29.5,18.5,30.1,17.8,30.1z M16.7,38.2c0,0.7-0.5,1.2-1.2,1.2h-4.2c-0.7,0-1.2-0.6-1.2-1.2c0-0.7,0.5-1.2,1.2-1.2h4.2
		C16.1,36.9,16.7,37.5,16.7,38.2z M11.8,18.2H19c0.7,0,1.2,0.5,1.2,1.2c0,0.7-0.6,1.2-1.2,1.2h-7.2c-0.7,0-1.2-0.6-1.2-1.2
		C10.6,18.8,11.1,18.2,11.8,18.2z M4.3,18.2h2.3c0.7,0,1.2,0.5,1.2,1.2c0,0.7-0.6,1.2-1.2,1.2H4.3c-0.7,0-1.2-0.6-1.2-1.2
		C3.1,18.8,3.6,18.2,4.3,18.2z M4.3,27.6h6.3c0.7,0,1.2,0.5,1.2,1.2c0,0.7-0.6,1.2-1.2,1.2H4.3c-0.7,0-1.2-0.6-1.2-1.2
		C3.1,28.1,3.6,27.6,4.3,27.6z M4.3,36.9h3.1c0.7,0,1.2,0.5,1.2,1.2c0,0.7-0.6,1.2-1.2,1.2H4.3c-0.7,0-1.2-0.6-1.2-1.2
		C3.1,37.5,3.6,36.9,4.3,36.9z M4.3,46.3h11.2c0.7,0,1.2,0.5,1.2,1.2c0,0.7-0.5,1.2-1.2,1.2H4.3c-0.7,0-1.2-0.6-1.2-1.2
		C3.1,46.8,3.6,46.3,4.3,46.3z M4,55.6c0.1,0,0.2,0,0.2,0h5.8c0.7,0,1.2,0.5,1.2,1.2c0,0.7-0.6,1.2-1.2,1.2H4.3
		c-0.4,0-0.8-0.2-1-0.5c-0.2-0.2-0.3-0.5-0.3-0.7C3.1,56.2,3.5,55.7,4,55.6z M25.6,67.4H4.3c-0.7,0-1.2-0.6-1.2-1.2
		c0-0.7,0.6-1.2,1.2-1.2h21.3c0.7,0,1.2,0.5,1.2,1.2C26.8,66.9,26.3,67.4,25.6,67.4z M40.2,67.4h-7c-0.7,0-1.2-0.6-1.2-1.2
		c0-0.7,0.6-1.2,1.2-1.2h7c0.7,0,1.2,0.5,1.2,1.2C41.4,66.9,40.8,67.4,40.2,67.4z"/>
	<path class="st14" d="M49.5,46.1c0.8-1.8,1.1-3.7,1-5.6c-0.1-2.3-0.9-4.5-2.2-6.5c0,1,0,1.9-0.5,2.7c-0.1,0.2-0.3,0.4-0.5,0.7
		c-0.3,0.3-0.6,0.5-1,0.7v0.3c0,1.9-1.2,3.6-2.9,4.1l-0.5,1.7c-1,3.7-8.6,3.9-9.6,0l-0.5-1.7c-1.7-0.5-2.9-2.2-2.9-4.1v-0.3
		c-0.3-0.1-0.6-0.3-0.8-0.5c-0.7-0.6-1.1-1.5-1.1-2.5v-1c-1.7,2.4-2.4,5.1-2.2,7.9c0.2,3.2,1.6,6.3,4.1,8.6c1.4,1.3,3,2.1,4.7,2.6h0
		c1.4,0.4,2.8,0.6,4.3,0.5c2.4-0.1,4.7-0.9,6.7-2.4c0.6-0.5,1.2-1,1.8-1.6c0,0,0.1-0.1,0.1-0.1c0.1-0.2,0.3-0.3,0.4-0.5c0,0,0,0,0,0
		C48.5,48.1,49.1,47.1,49.5,46.1z"/>
	<radialGradient id="SVGID_1_" cx="38.0664" cy="16.1627" r="14.1476" gradientUnits="userSpaceOnUse">
		<stop  offset="0" style="stop-color:#171717"/>
		<stop  offset="1" style="stop-color:#020202"/>
	</radialGradient>
	<path class="st3" d="M28.1,24.2c0.1,0.3,0.3,0.5,0.4,0.8c0.9,1.5,1.7,3,2.4,4.6c0.2,0.4,0.4,0.9,0.6,1.3H34v-0.2V30v-1.8v-3.6
		l-1.4-1.3l-1.7-1.5c-0.3-0.3-0.4-0.6-0.4-1c0-0.3,0.1-0.5,0.3-0.7c0.3-0.3,0.8-0.5,1.2-0.4c0.2,0,0.4,0.1,0.5,0.3l2.9,2.7l0.5,0.4
		c0.3,0.2,0.5,0.6,0.5,1v3.6v3.2h3.2v-3.2V24c0-0.4,0.2-0.8,0.5-1l0.5-0.5c1,0.1,2,0.4,2.9,0.6l-1.4,1.3v3.6v2.7h2.4l0.5-1.2
		c0-0.1,0-0.1,0.1-0.2c0,0,0,0,0,0c0.8-1.7,1.6-3.1,2.4-4.6c0.1-0.1,0.2-0.3,0.2-0.4c0.1-0.1,0.1-0.2,0.2-0.3
		c1.9-3.3,3.6-6.2,3.6-9.3c0-7.5-6.1-13.5-13.5-13.5c-0.7,0-1.5,0.1-2.2,0.2c-5.3,0.9-9.6,4.8-10.9,10c-0.3,1.1-0.4,2.2-0.4,3.4
		c0,2.7,1.3,5.3,3,8.1C27.7,23.5,27.9,23.9,28.1,24.2z"/>
	<radialGradient id="SVGID_2_" cx="38.0647" cy="43.6042" r="2.0269" gradientUnits="userSpaceOnUse">
		<stop  offset="0" style="stop-color:#171717"/>
		<stop  offset="1" style="stop-color:#020202"/>
	</radialGradient>
	<path class="st4" d="M38,44.6c0.1,0,0.2,0,0.4,0h0c0.8-0.1,2-0.4,2.1-1l0.3-0.9h-5.4l0.3,0.9C35.8,44.3,37.2,44.6,38,44.6z"/>
	<radialGradient id="SVGID_3_" cx="38.0655" cy="39.2896" r="4.1167" gradientUnits="userSpaceOnUse">
		<stop  offset="0" style="stop-color:#171717"/>
		<stop  offset="1" style="stop-color:#020202"/>
	</radialGradient>
	<path class="st5" d="M43.8,38.4H32.3c0,0.9,0.6,1.7,1.5,1.7h8.5C43.2,40.2,43.8,39.3,43.8,38.4z"/>
	<radialGradient id="SVGID_4_" cx="38.0666" cy="43.1559" r="16.6798" gradientUnits="userSpaceOnUse">
		<stop  offset="0" style="stop-color:#171717"/>
		<stop  offset="1" style="stop-color:#020202"/>
	</radialGradient>
	<path class="st6" d="M55.6,43.2C55.6,43.2,55.6,43.2,55.6,43.2c0.1-1,0.1-2,0.1-3c-0.3-4.9-2.6-9.6-6.7-12.8
		c-0.4,0.7-0.8,1.5-1.2,2.2c0,0.1-0.1,0.1-0.1,0.2l0.1,0.1l0.3,0.2l0,0c3,2.7,4.7,6.4,4.9,10.2c0.1,2.5-0.4,5.1-1.5,7.4
		c-0.4,0.8-0.9,1.6-1.4,2.4c0,0,0,0,0,0c-0.1,0.1-0.2,0.3-0.3,0.4c-0.2,0.2-0.3,0.4-0.5,0.6l0,0l0,0c-0.4,0.5-0.8,0.9-1.3,1.3
		c-0.1,0.1-0.3,0.3-0.5,0.4c-2.5,2-5.4,3-8.4,3.2c-3.8,0.2-7.7-1-10.8-3.8c-1.3-1.2-2.3-2.5-3.1-3.9c0,0,0,0,0,0c0,0,0,0,0,0
		c-1.1-2-1.7-4.1-1.8-6.3c-0.2-3.8,1-7.7,3.8-10.8l1.5-1.5c-0.4-0.8-0.8-1.6-1.3-2.4c-0.6,0.5-1.7,1.4-2.1,2c0,0-0.1,0.1-0.1,0.1h0
		c-2.9,3.2-4.3,7.2-4.4,11.2v0c0,0.5,0,1,0,1.5c0.3,4.5,2.2,8.8,5.8,12.1c0,0,0.1,0.1,0.1,0.1c3.6,3.2,8.2,4.7,12.7,4.4
		c3.2-0.2,6.2-1.2,8.8-2.9c0.5-0.4,1.1-0.8,1.6-1.2c0.6-0.5,1.2-1.1,1.8-1.8c0.2-0.2,0.3-0.4,0.5-0.6c0.7-0.9,1.3-1.8,1.8-2.7
		C54.6,47.7,55.3,45.5,55.6,43.2z"/>
	<radialGradient id="SVGID_5_" cx="64.4893" cy="63.7996" r="9.0756" gradientUnits="userSpaceOnUse">
		<stop  offset="0" style="stop-color:#171717"/>
		<stop  offset="1" style="stop-color:#020202"/>
	</radialGradient>
	<path class="st7" d="M72.6,66L60.2,55l-0.3,0.4l-2.2,2.4l0,0l-2.2,2.4l-0.3,0.4l12.4,11.1c1.5,1.4,3.9,1.2,5.3-0.3l0,0
		C74.2,69.8,74.1,67.4,72.6,66z"/>
	<radialGradient id="SVGID_6_" cx="38.0664" cy="34.6545" r="5.537" gradientUnits="userSpaceOnUse">
		<stop  offset="0" style="stop-color:#171717"/>
		<stop  offset="1" style="stop-color:#020202"/>
	</radialGradient>
	<path class="st8" d="M45.8,35.1v-0.9c0-0.5-0.4-0.8-0.8-0.8H31.2c-0.5,0-0.8,0.4-0.8,0.8v0.9c0,0.5,0.4,0.8,0.8,0.8h13.8
		C45.4,36,45.8,35.6,45.8,35.1z"/>
	<path class="st14" d="M57.2,54.6l-2.5-2.2c-0.4,0.6-0.8,1.1-1.2,1.6c-0.4,0.5-0.9,1-1.4,1.5l2.4,2.1l1.4-1.5L57.2,54.6z"/>
</g>
</svg>
