<?xml version="1.0" encoding="utf-8"?>
<!-- Generator: Adobe Illustrator 24.3.0, SVG Export Plug-In . SVG Version: 6.00 Build 0)  -->
<svg version="1.1" id="Layer_1" xmlns="http://www.w3.org/2000/svg" xmlns:xlink="http://www.w3.org/1999/xlink" x="0px" y="0px"
	 width="74.3px" height="74.3px" viewBox="0 0 74.3 74.3" style="enable-background:new 0 0 74.3 74.3;" xml:space="preserve">
<style type="text/css">
	.st0{fill:#FF2A40;}
	.st1{opacity:0.25;fill:#FFFFFF;enable-background:new    ;}
	.st2{opacity:0.15;fill:#FFFFFF;enable-background:new    ;}
	.st3{fill:url(#SVGID_1_);}
	.st4{fill:url(#SVGID_2_);}
	.st5{fill:url(#SVGID_3_);}
	.st6{fill:url(#SVGID_4_);}
	.st7{fill:url(#SVGID_5_);}
	.st8{fill:url(#SVGID_6_);}
	.st9{fill:url(#SVGID_7_);}
	.st10{fill:#FFB400;}
	.st11{fill:url(#SVGID_8_);}
	.st12{fill:url(#SVGID_9_);}
	.st13{fill:url(#SVGID_10_);}
	.st14{fill:#196BFF;}
	.st15{fill:url(#SVGID_11_);}
	.st16{fill:url(#SVGID_12_);}
	.st17{fill:url(#SVGID_13_);}
	.st18{fill:url(#SVGID_14_);}
	.st19{fill:url(#SVGID_15_);}
	.st20{fill:url(#SVGID_16_);}
	.st21{fill:#010101;}
</style>
<g>
	<path class="st14" d="M37.1,21.5c-9.9,0-19.9,0-29.8,0c-3.9,0-5.9-2.1-5.9-5.9c0-2.2,0-4.4,0-6.6c0-3.2,2.2-5.4,5.4-5.4
		c20.3,0,40.6,0,60.8,0c3.2,0,5.3,2.2,5.4,5.4c0,2.3,0,4.7,0,7c0,3.3-2.2,5.5-5.5,5.5C57.3,21.5,47.2,21.5,37.1,21.5z"/>
	<path class="st14" d="M1.8,34.3c4.3,5.4,8.7,10.8,13.1,16.3C10.5,56,6.2,61.5,1.8,66.9c-0.1,0-0.2-0.1-0.3-0.1
		c0-10.8,0-21.6,0-32.4C1.6,34.3,1.7,34.3,1.8,34.3z"/>
	<path d="M20.6,50.6c4.4-5.5,8.7-10.9,13.1-16.3c0.1,0,0.2,0.1,0.3,0.1c0,10.8,0,21.6,0,32.3c-0.1,0.1-0.2,0.1-0.3,0.2
		C29.3,61.4,25,56,20.6,50.6z"/>
	<path d="M17.8,47c-4.4-5.4-8.6-10.8-13.1-16.4c8.9,0,17.4,0,26.3,0C26.4,36.2,22.1,41.6,17.8,47z"/>
	<path d="M17.8,54.1c4.3,5.4,8.6,10.7,12.9,16.1c-1.3,0.6-24.1,0.7-25.8,0.1C9.1,64.9,13.4,59.6,17.8,54.1z"/>
	<path d="M56.5,34.9c-4.5,0-9,0-13.6,0c-1.8,0-2.8-0.8-2.8-2.2c0-1.4,1-2.3,2.7-2.3c9.1,0,18.2,0,27.2,0c1.8,0,2.8,0.8,2.8,2.2
		c0,1.4-1,2.3-2.8,2.3C65.6,34.9,61.1,34.9,56.5,34.9z"/>
	<path class="st14" d="M56.6,39.4c4.5,0,9,0,13.6,0c1.8,0,2.8,0.8,2.8,2.2c0,1.4-1,2.3-2.8,2.3c-9.1,0-18.2,0-27.2,0
		c-1.8,0-2.8-0.8-2.8-2.2c0-1.4,1-2.3,2.7-2.3C47.5,39.4,52,39.4,56.6,39.4z"/>
	<path d="M56.6,52.8c-4.5,0-9,0-13.6,0c-1.9,0-2.9-0.8-2.8-2.3c0-1.4,1-2.2,2.8-2.2c9,0,18.1,0,27.1,0c1.8,0,2.9,0.9,2.9,2.3
		c0,1.4-1,2.2-2.8,2.2C65.6,52.8,61.1,52.8,56.6,52.8z"/>
	<path class="st14" d="M56.4,61.8c-4.6,0-9.2,0-13.8,0c-1.9,0-3.1-1.7-2.2-3.2c0.4-0.6,1.4-1.2,2.1-1.2c9.3-0.1,18.6-0.1,27.9,0
		c1.5,0,2.5,1,2.5,2.3c0,1.3-1,2.2-2.5,2.2C65.8,61.8,61.1,61.8,56.4,61.8z"/>
	<path d="M56.5,70.7c-4.5,0-9,0-13.6,0c-1.8,0-2.8-0.8-2.8-2.2c0-1.4,1-2.2,2.7-2.2c9.1,0,18.2,0,27.2,0c1.8,0,2.8,0.8,2.8,2.2
		c0,1.4-1,2.2-2.8,2.2C65.6,70.7,61,70.7,56.5,70.7z"/>
</g>
</svg>
