<?xml version="1.0" encoding="utf-8"?>
<!-- Generator: Adobe Illustrator 24.3.0, SVG Export Plug-In . SVG Version: 6.00 Build 0)  -->
<svg version="1.1" id="Layer_1" xmlns="http://www.w3.org/2000/svg" xmlns:xlink="http://www.w3.org/1999/xlink" x="0px" y="0px"
	 width="74.3px" height="74.3px" viewBox="0 0 74.3 74.3" style="enable-background:new 0 0 74.3 74.3;" xml:space="preserve">
<style type="text/css">
	.st0{fill:#FF2A40;}
	.st1{opacity:0.25;fill:#FFFFFF;enable-background:new    ;}
	.st2{opacity:0.15;fill:#FFFFFF;enable-background:new    ;}
	.st3{fill:url(#SVGID_1_);}
	.st4{fill:url(#SVGID_2_);}
	.st5{fill:url(#SVGID_3_);}
	.st6{fill:url(#SVGID_4_);}
	.st7{fill:url(#SVGID_5_);}
	.st8{fill:url(#SVGID_6_);}
	.st9{fill:url(#SVGID_7_);}
	.st10{fill:#FFB400;}
	.st11{fill:url(#SVGID_8_);}
	.st12{fill:url(#SVGID_9_);}
	.st13{fill:url(#SVGID_10_);}
	.st14{fill:#196BFF;}
	.st15{fill:url(#SVGID_11_);}
	.st16{fill:url(#SVGID_12_);}
	.st17{fill:url(#SVGID_13_);}
	.st18{fill:url(#SVGID_14_);}
	.st19{fill:url(#SVGID_15_);}
	.st20{fill:url(#SVGID_16_);}
</style>
<g>
	<path class="st14" d="M29.2,23.8c1.8,2.5,2.9,5.5,4.3,8.3c0,0,0,0.1,0,0.1c0.2,0.4,0.6,0.8,0.1,1.3c-0.4,0.4-0.9,0.1-1.3-0.1
		c-2.7-1.3-5.4-2.7-8-4c-0.4-0.2-0.7-0.5-1-0.8c-2.8-2.8-5.5-5.5-8.3-8.3c-0.2-0.2-0.3-0.5-0.8-0.6c0,0.2,0,0.3,0,0.5
		c0,8.7,0,17.5,0,26.2c0,0.6,0.2,0.9,0.6,1.3c4.9,4.9,9.8,9.7,14.6,14.6c0.4,0.4,0.9,0.6,1.5,0.6c13.8,0,27.6,0,41.3,0
		c0.8,0,1.1-0.2,1.1-1c0-15.1,0-30.1,0-45.2c0-0.8-0.2-1-1-1c-16.7,0-33.3,0-50,0c-0.3,0-0.6-0.1-1,0.2c0.5,0.4,0.9,0.8,1.4,1.3
		C24.9,19.3,27.4,21.3,29.2,23.8z M36.8,38.1c0.2-7.5,6.3-13.2,14-12.9c7,0.3,12.8,6.1,12.7,13.6c-0.2,7.3-6.2,13.2-13.4,13
		C42.4,51.6,36.6,45.6,36.8,38.1z"/>
	<path d="M4.2,39.7c0.5,10.6,1,21.1,1.4,31.7c0,0.8,0.4,0.7,0.9,0.8C17,72.6,27.4,73,37.9,73.5c0.3,0,0.5,0,0.8,0
		C27.1,62,15.7,50.5,4.2,39C4.2,39.2,4.2,39.5,4.2,39.7z M12.8,66c-0.8,0-1.1-0.3-1.1-1.1c-0.1-3.9-0.3-7.8-0.5-11.7
		c0-0.3,0-0.7,0.3-0.9c0.4-0.2,0.7,0.1,1,0.3c4.2,4.2,8.4,8.3,12.5,12.5c0.3,0.3,0.5,0.6,0.3,1c-0.2,0.4-0.6,0.4-1,0.4
		c-1.9-0.1-3.8-0.2-5.7-0.3"/>
	<path d="M5.7,8.3c-0.3,0.3-0.4,0.5,0,0.8c6.1,6,12.1,12.1,18.1,18.1c0.3,0.3,0.5,0.4,0.8,0c0.9-1,1.9-1.9,2.9-2.9
		c0.1-0.1,0.2-0.2,0.3-0.4c-0.1-0.1-0.3-0.2-0.4-0.3c-6-6-12.1-12.1-18.1-18.1C9,5.2,8.8,5.1,8.5,5.4C7.6,6.4,6.6,7.3,5.7,8.3z"/>
	<path class="st14" d="M72.7,66.6c-0.2,0-0.5,0-0.7,0c-16.6,0-19.5,0-36.1,0c-0.2,0-0.5,0-0.7,0c-0.4,0.1-0.6,0.3-0.6,0.7
		c0,0.4,0.3,0.6,0.7,0.6c0.3,0,0.6,0,0.8,0c8.2,0,16.5,0,24.7,0s2.9,0,11.1,0c0.3,0,0.6,0,0.8,0c0.4,0,0.6-0.2,0.6-0.6
		C73.3,66.9,73.1,66.6,72.7,66.6z"/>
	<path class="st14" d="M72.4,72.2c-0.1,0-0.2,0-0.4,0c-11.3,0-9.1,0-20.5,0c-0.2,0-0.4,0-0.6,0c-0.4,0-0.7,0.2-0.7,0.6
		c0,0.5,0.3,0.7,0.7,0.7c0.2,0,0.4,0,0.6,0c5.6,0,11.3,0,16.9,0c0.2,0,0.4,0,0.5,0c1,0,1.4,0,1.4,0c0.2,0,0.3,0,0.5,0
		c0.5,0,1,0,1.5,0c0.5,0,0.9-0.1,0.9-0.7C73.3,72.3,72.8,72.2,72.4,72.2z"/>
	<path d="M5.5,3.6c0.9-0.9,0.9-0.9,0-1.9C4.8,1,4,0.5,3,1C2,1.6,1.1,2.3,1,3.4c0,1.3,0.9,1.8,1.5,2.5c0.3,0.3,0.5,0.3,0.7,0
		C4,5.1,4.8,4.4,5.5,3.6z"/>
	<path d="M27.2,29.3c1.4,0.7,2.8,1.4,4.2,2.1c0-0.1,0.1-0.1,0.1-0.2c-1-2-2-4-3-6.1c-0.6,0.6-1.2,1.2-1.7,1.7
		c-0.5,0.5-1.4,1.1-1.3,1.5C25.7,28.9,26.6,29,27.2,29.3z"/>
	<path class="st14" d="M47.1,72.2c-0.7,0-1.4,0-2,0c-0.7,0-1.4,0-2.1,0c-0.5,0-0.8,0.2-0.8,0.7c0,0.5,0.3,0.6,0.8,0.6
		c1.4,0,2.8,0,4.2,0c0.4,0,0.7-0.2,0.7-0.6C47.9,72.4,47.6,72.2,47.1,72.2z"/>
	<path d="M4.4,7.6c1.1-1.1,2.2-2.2,3.3-3.3C8,4.1,7.7,4,7.6,3.8c-0.1-0.2-0.3-0.2-0.4,0c-1,1-2.1,2.1-3.1,3.1C3.9,7.1,3.8,7.2,4,7.4
		c0.1,0.1,0.2,0.2,0.3,0.3C4.4,7.6,4.4,7.6,4.4,7.6z"/>
	<path d="M48.3,50.4c4.7,0.7,9.1-1.5,10.9-4.2c-10.6,2-18.9-8.1-15.3-18c-4.3,2.5-6.5,7.7-5.5,12.7C39.3,45.8,43.4,49.6,48.3,50.4z"
		/>
	<path class="st14" d="M45.1,34.6c2.1,1.5,4.5,2.3,7.1,2.4c0.5,0,0.7-0.2,0.9-0.6c1.4-2.4,3.2-4.2,5.7-5.4c0.6-0.3,0.5-0.5,0.1-0.9
		c-2.4-2.4-5.3-3.7-8.2-3.8c-1.7,0-2.9,0.2-4,0.5c-0.5,0.1-0.8,0.4-1.1,0.9c-0.8,1.7-1.2,3.5-1.2,5.4C44.4,33.8,44.6,34.2,45.1,34.6
		z"/>
	<path class="st14" d="M53.4,38.8c-0.7,1.7-0.8,3.5-0.8,5.3c0,0.5,0.3,0.6,0.7,0.7c2.3,0.6,4.5,0.5,6.8-0.2c0.3-0.1,0.6-0.3,0.8-0.6
		c1.5-3,1.7-6,0.7-9.4c-2.2,2.1-4.7,3.2-7.5,3.6C53.6,38.2,53.5,38.5,53.4,38.8z"/>
	<path class="st14" d="M51.8,38.3c-2.5-0.1-4.7-0.9-6.9-2.2c0.4,3.3,4,7.1,6.4,7.8c0-1.8,0.1-3.5,0.7-5.2
		C52.1,38.4,52.1,38.3,51.8,38.3z"/>
	<path d="M54.4,36.8c2.6-0.5,4.7-1.6,6.4-3.3c0.5-0.5-0.2-0.8-0.4-1.3c-0.1-0.3-0.3-0.3-0.6-0.2C57.6,33,55.8,34.5,54.4,36.8z"/>
	<path class="st14" d="M13.6,64.8c2.7,0.1,5.3,0.2,8,0.4c0.4,0,0.8,0,1.2,0c-3.4-3.4-6.9-6.8-10.3-10.3c0.1,3.1,0.3,6.3,0.4,9.4
		C12.9,64.7,13.2,64.7,13.6,64.8z"/>
</g>
</svg>
